<svg width="60" height="60" viewBox="0 0 60 60" xmlns="http://www.w3.org/2000/svg">
  <!-- Розовый круглый фон -->
  <circle cx="30" cy="30" r="30" fill="#f9e2d7"/>
  
  <!-- Торт (золотой) -->
  <g fill="#b4951e" stroke="#b4951e" stroke-width="1">
    <!-- Основа торта -->
    <rect x="15" y="35" width="30" height="8" rx="2"/>
    
    <!-- Средний слой -->
    <rect x="18" y="28" width="24" height="7" rx="2"/>
    
    <!-- Верхний слой -->
    <rect x="21" y="22" width="18" height="6" rx="2"/>
    
    <!-- Глазурь на верхнем слое -->
    <path d="M21 22 Q30 18 39 22" fill="none" stroke="#b4951e" stroke-width="2"/>
    <path d="M22 20 Q30 16 38 20" fill="none" stroke="#b4951e" stroke-width="1"/>
    
    <!-- Точки-украшения на слоях -->
    <circle cx="20" cy="39" r="0.8"/>
    <circle cx="25" cy="39" r="0.8"/>
    <circle cx="30" cy="39" r="0.8"/>
    <circle cx="35" cy="39" r="0.8"/>
    <circle cx="40" cy="39" r="0.8"/>
    
    <circle cx="22" cy="32" r="0.8"/>
    <circle cx="27" cy="32" r="0.8"/>
    <circle cx="32" cy="32" r="0.8"/>
    <circle cx="37" cy="32" r="0.8"/>
    
    <circle cx="24" cy="26" r="0.8"/>
    <circle cx="29" cy="26" r="0.8"/>
    <circle cx="34" cy="26" r="0.8"/>
    
    <!-- Клубника слева -->
    <ellipse cx="18" cy="20" rx="2" ry="3"/>
    <path d="M18 17 Q18 15 20 17" fill="none" stroke="#b4951e" stroke-width="1"/>
    <circle cx="17" cy="19" r="0.3"/>
    <circle cx="19" cy="21" r="0.3"/>
    
    <!-- Вишни справа -->
    <circle cx="38" cy="19" r="1.5"/>
    <circle cx="40" cy="20" r="1.5"/>
    <path d="M38 17 Q38 15 40 17" fill="none" stroke="#b4951e" stroke-width="1"/>
    <path d="M40 17 Q40 15 42 17" fill="none" stroke="#b4951e" stroke-width="1"/>
  </g>
</svg>
