<svg width="60" height="60" viewBox="0 0 60 60" xmlns="http://www.w3.org/2000/svg">
  <!-- Розовый круглый фон -->
  <circle cx="30" cy="30" r="30" fill="#f9e2d7"/>
  
  <!-- Капкейк (золотой) -->
  <g fill="#b4951e" stroke="#b4951e" stroke-width="1">
    <!-- Обертка капкейка -->
    <path d="M20 45 L25 40 L35 40 L40 45 L40 50 L20 50 Z"/>
    
    <!-- Вертикальные линии на обертке -->
    <line x1="22" y1="42" x2="22" y2="48" stroke="#b4951e" stroke-width="0.5"/>
    <line x1="25" y1="41" x2="25" y2="47" stroke="#b4951e" stroke-width="0.5"/>
    <line x1="28" y1="40" x2="28" y2="46" stroke="#b4951e" stroke-width="0.5"/>
    <line x1="31" y1="40" x2="31" y2="46" stroke="#b4951e" stroke-width="0.5"/>
    <line x1="34" y1="40" x2="34" y2="46" stroke="#b4951e" stroke-width="0.5"/>
    <line x1="37" y1="41" x2="37" y2="47" stroke="#b4951e" stroke-width="0.5"/>
    
    <!-- Крем (завитки) -->
    <path d="M22 40 Q30 35 38 40 Q30 30 22 40" fill="#b4951e"/>
    <path d="M24 38 Q30 33 36 38 Q30 28 24 38" fill="#b4951e"/>
    <path d="M26 36 Q30 31 34 36 Q30 26 26 36" fill="#b4951e"/>
    
    <!-- Клубника наверху -->
    <ellipse cx="30" cy="32" rx="3" ry="4"/>
    
    <!-- Семена клубники -->
    <circle cx="28" cy="30" r="0.3"/>
    <circle cx="32" cy="30" r="0.3"/>
    <circle cx="30" cy="28" r="0.3"/>
    <circle cx="29" cy="34" r="0.3"/>
    <circle cx="31" cy="34" r="0.3"/>
    
    <!-- Листик клубники (коронка) -->
    <path d="M30 28 Q30 25 28 27 Q30 24 32 27 Q30 25 30 28" fill="#b4951e"/>
    <path d="M28 27 Q26 26 27 28" fill="none" stroke="#b4951e" stroke-width="0.5"/>
    <path d="M32 27 Q34 26 33 28" fill="none" stroke="#b4951e" stroke-width="0.5"/>
  </g>
</svg>
